<mxfile host="app.diagrams.net" modified="2021-05-03T04:34:10.229Z" agent="5.0 (Windows NT 10.0; Win64; x64) AppleWebKit/537.36 (KHTML, like Gecko) Chrome/90.0.4430.93 Safari/537.36" etag="WVkUaYmN7H-avsJWdoay" version="14.6.9" type="github">
  <diagram id="pr_U8pTVST6_8-0k-mW3" name="Page-1">
    <mxGraphModel dx="868" dy="425" grid="1" gridSize="10" guides="1" tooltips="1" connect="1" arrows="1" fold="1" page="1" pageScale="1" pageWidth="850" pageHeight="1100" math="0" shadow="0">
      <root>
        <mxCell id="0" />
        <mxCell id="1" parent="0" />
        <mxCell id="0gydgVwmY8BRI2s4FHeK-2" value="Students" style="rounded=0;whiteSpace=wrap;html=1;" vertex="1" parent="1">
          <mxGeometry x="330" y="40" width="150" height="70" as="geometry" />
        </mxCell>
        <mxCell id="0gydgVwmY8BRI2s4FHeK-3" value="Staff" style="rounded=0;whiteSpace=wrap;html=1;" vertex="1" parent="1">
          <mxGeometry x="330" y="330" width="150" height="70" as="geometry" />
        </mxCell>
        <mxCell id="0gydgVwmY8BRI2s4FHeK-4" value="Fill up sign out slip" style="rhombus;whiteSpace=wrap;html=1;fontFamily=Comic Sans MS;align=center;" vertex="1" parent="1">
          <mxGeometry x="560" y="160" width="140" height="120" as="geometry" />
        </mxCell>
        <mxCell id="0gydgVwmY8BRI2s4FHeK-5" value="Release Appararus" style="rhombus;whiteSpace=wrap;html=1;" vertex="1" parent="1">
          <mxGeometry x="130" y="160" width="140" height="120" as="geometry" />
        </mxCell>
        <mxCell id="0gydgVwmY8BRI2s4FHeK-6" style="edgeStyle=orthogonalEdgeStyle;rounded=0;orthogonalLoop=1;jettySize=auto;html=1;exitX=0.5;exitY=1;exitDx=0;exitDy=0;" edge="1" parent="1" source="0gydgVwmY8BRI2s4FHeK-4" target="0gydgVwmY8BRI2s4FHeK-4">
          <mxGeometry relative="1" as="geometry" />
        </mxCell>
        <mxCell id="0gydgVwmY8BRI2s4FHeK-8" value="" style="endArrow=none;html=1;fontFamily=Comic Sans MS;entryX=0.5;entryY=0;entryDx=0;entryDy=0;" edge="1" parent="1" target="0gydgVwmY8BRI2s4FHeK-4">
          <mxGeometry width="50" height="50" relative="1" as="geometry">
            <mxPoint x="480" y="80" as="sourcePoint" />
            <mxPoint x="620" y="80" as="targetPoint" />
            <Array as="points">
              <mxPoint x="630" y="80" />
            </Array>
          </mxGeometry>
        </mxCell>
        <mxCell id="0gydgVwmY8BRI2s4FHeK-9" value="" style="endArrow=classic;html=1;fontFamily=Comic Sans MS;entryX=1;entryY=0.5;entryDx=0;entryDy=0;" edge="1" parent="1" target="0gydgVwmY8BRI2s4FHeK-3">
          <mxGeometry width="50" height="50" relative="1" as="geometry">
            <mxPoint x="630" y="280" as="sourcePoint" />
            <mxPoint x="680" y="230" as="targetPoint" />
            <Array as="points">
              <mxPoint x="630" y="365" />
            </Array>
          </mxGeometry>
        </mxCell>
        <mxCell id="0gydgVwmY8BRI2s4FHeK-11" value="" style="endArrow=none;html=1;fontFamily=Comic Sans MS;" edge="1" parent="1">
          <mxGeometry width="50" height="50" relative="1" as="geometry">
            <mxPoint x="330" y="359" as="sourcePoint" />
            <mxPoint x="200" y="280" as="targetPoint" />
            <Array as="points">
              <mxPoint x="200" y="359" />
            </Array>
          </mxGeometry>
        </mxCell>
        <mxCell id="0gydgVwmY8BRI2s4FHeK-12" value="" style="endArrow=classic;html=1;fontFamily=Comic Sans MS;entryX=0;entryY=0.571;entryDx=0;entryDy=0;entryPerimeter=0;" edge="1" parent="1" target="0gydgVwmY8BRI2s4FHeK-2">
          <mxGeometry width="50" height="50" relative="1" as="geometry">
            <mxPoint x="200" y="160" as="sourcePoint" />
            <mxPoint x="250" y="110" as="targetPoint" />
            <Array as="points">
              <mxPoint x="200" y="80" />
            </Array>
          </mxGeometry>
        </mxCell>
      </root>
    </mxGraphModel>
  </diagram>
</mxfile>
